<svg xmlns="http://www.w3.org/2000/svg" version="1.1" xmlns:xlink="http://www.w3.org/1999/xlink" width="2000" height="227" viewBox="0 0 2000 227"><svg xml:space="preserve" width="2000" height="227" data-version="2" data-id="lg_681KxdqWtEjkgIseoZ" viewBox="0 0 640 227" x="0" y="0"><rect width="100%" height="100%" fill="transparent"></rect><path fill="#c56e33" d="M75.21 177.47q0 4.26-1.05 7.61-1.06 3.35-2.85 5.91-1.8 2.56-4.14 4.38-2.35 1.82-4.91 2.99-2.56 1.17-5.16 1.7-2.61.53-4.91.53l25.99 22.44H58.94L33 200.59h-8.94v-12.45h28.13q2.35-.19 4.28-.98 1.94-.79 3.35-2.13 1.42-1.34 2.18-3.23.77-1.89.77-4.33v-7.84q0-1.06-.27-1.61-.26-.55-.67-.81-.4-.26-.86-.31-.45-.05-.83-.05H19.08v56.18H6.64v-62.35q0-1.29.48-2.44.47-1.15 1.31-2.01.84-.86 1.99-1.34 1.15-.48 2.49-.48h47.23q4.16 0 7.03 1.51 2.87 1.5 4.66 3.78 1.8 2.27 2.59 4.9.79 2.63.79 4.93Z"></path><rect width="71.54" height="68.62" x="-35.77" y="-34.31" fill="none" rx="0" ry="0" transform="translate(42.91 189.22)"></rect><path fill="#c56e33" d="M144.11 194.99h-39.28v-12.54h39.28Zm5.6 28.04h-44.88q-2.59 0-5.65-.91-3.06-.91-5.67-2.99t-4.35-5.41q-1.75-3.32-1.75-8.16v-44.88q0-1.29.48-2.44t1.32-2.01q.83-.86 1.98-1.34 1.15-.48 2.49-.48h56.03v12.44H99.85v38.71q0 2.44 1.29 3.73 1.3 1.3 3.78 1.3h44.79Z"></path><rect width="62.3" height="68.62" x="-31.15" y="-34.31" fill="none" rx="0" ry="0" transform="translate(119.06 189.22)"></rect><path fill="#c56e33" d="M227.42 202.83q0 3.69-.93 6.63-.93 2.95-2.46 5.19-1.53 2.25-3.59 3.83-2.06 1.58-4.26 2.59-2.2 1-4.47 1.48-2.28.48-4.29.48h-47.99v-12.44h47.99q3.59 0 5.58-2.11 1.98-2.1 1.98-5.65 0-1.72-.52-3.15-.53-1.44-1.51-2.49-.98-1.05-2.39-1.63-1.41-.57-3.14-.57h-28.61q-3.02 0-6.51-1.08-3.49-1.08-6.48-3.47-3-2.39-4.98-6.27-1.99-3.87-1.99-9.47 0-5.6 1.99-9.45 1.98-3.85 4.98-6.27 2.99-2.42 6.48-3.49 3.49-1.08 6.51-1.08h42.35v12.44h-42.35q-3.54 0-5.53 2.15-1.99 2.16-1.99 5.7 0 3.59 1.99 5.67t5.53 2.08h28.71q2.01.05 4.26.55t4.47 1.56q2.23 1.05 4.24 2.65 2.01 1.6 3.56 3.85 1.56 2.25 2.47 5.17.9 2.92.9 6.6"></path><rect width="68.57" height="68.62" x="-34.28" y="-34.31" fill="none" rx="0" ry="0" transform="translate(193.63 189.22)"></rect><path fill="#c56e33" d="M304.99 216.76q0 1.34-.48 2.49-.48 1.15-1.34 1.98-.86.84-2.01 1.32-1.14.48-2.44.48h-28.04q-3.97 0-8.04-.86-4.06-.86-7.87-2.66-3.8-1.79-7.15-4.57-3.35-2.77-5.86-6.58-2.52-3.8-3.95-8.71-1.44-4.9-1.44-10.93v-34.31h12.44v34.31q0 5.26 1.46 8.9 1.46 3.64 3.71 6.08t4.93 3.82q2.68 1.39 5.1 2.06 2.41.67 4.26.84 1.84.17 2.41.17h21.87v-56.18h12.44Z"></path><rect width="68.62" height="68.62" x="-34.31" y="-34.31" fill="none" rx="0" ry="0" transform="translate(271.18 189.22)"></rect><path fill="#c56e33" d="M399.31 223.03h-12.54v-40.87l-22.06 38.81q-.81 1.48-2.27 2.25t-3.14.77q-1.62 0-3.04-.77-1.41-.77-2.22-2.25l-22.16-38.81v40.87h-12.44v-63.31q0-2.15 1.27-3.83 1.27-1.67 3.33-2.25 1-.24 2.01-.16 1 .07 1.93.43.94.36 1.7 1 .77.65 1.3 1.56l28.32 49.24 28.33-49.24q1.1-1.82 3.04-2.59 1.94-.76 4.04-.24 2.01.58 3.31 2.25 1.29 1.68 1.29 3.83Z"></path><rect width="79.87" height="70.71" x="-39.94" y="-35.36" fill="none" rx="0" ry="0" transform="translate(359.88 189.13)"></rect><path fill="#c56e33" d="M481.09 223.03h-12.45v-16.85h-43.73v16.85h-12.44v-34.31q0-7.51 2.58-13.83t7.18-10.86q4.59-4.55 10.86-7.08 6.27-2.54 13.69-2.54h28.04q1.29 0 2.44.48t2.01 1.34q.86.86 1.34 2.01.48 1.15.48 2.44Zm-56.18-29.29h43.73v-26.89h-21.86q-.58 0-2.42.17-1.84.17-4.26.84-2.42.67-5.1 2.05-2.68 1.39-4.92 3.83-2.25 2.44-3.71 6.1-1.46 3.66-1.46 8.88Z"></path><rect width="68.62" height="68.62" x="-34.31" y="-34.31" fill="none" rx="0" ry="0" transform="translate(447.28 189.22)"></rect><path fill="#c56e33" d="M557.55 166.85h-27.42v56.18h-12.44v-56.18h-27.46v-12.44h67.32Z"></path><rect width="67.32" height="68.62" x="-33.66" y="-34.31" fill="none" rx="0" ry="0" transform="translate(524.39 189.22)"></rect><path fill="#c56e33" d="M623.11 194.99h-39.29v-12.54h39.29Zm5.6 28.04h-44.89q-2.58 0-5.64-.91-3.07-.91-5.67-2.99-2.61-2.08-4.36-5.41-1.75-3.32-1.75-8.16v-44.88q0-1.29.48-2.44t1.32-2.01q.84-.86 1.99-1.34 1.14-.48 2.48-.48h56.04v12.44h-49.86v38.71q0 2.44 1.29 3.73 1.29 1.3 3.78 1.3h44.79Z"></path><rect width="62.31" height="68.62" x="-31.16" y="-34.31" fill="none" rx="0" ry="0" transform="translate(598.05 189.22)"></rect><path fill="#c56e33" d="M616.77 2.919a3.239 3.239 0 0 0-2.228-.91H529.86c-3.45 0-6.273 2.823-6.273 6.273v119.183c0 3.45 2.823 6.273 6.273 6.273h94.092c3.45 0 6.272-2.823 6.272-6.273V17.691a3.24 3.24 0 0 0-.91-2.227zm-86.91 124.546V8.282h83.396l10.696 10.695v108.488z"></path><path fill="#c56e33" d="m612.316 40.556-47.8 47.83-19.758-22.582a3.102 3.102 0 0 0-4.423-.283 3.102 3.102 0 0 0-.282 4.423l21.955 25.09a3.096 3.096 0 0 0 2.258 1.067h.094c.815 0 1.63-.345 2.227-.91l50.182-50.182a3.124 3.124 0 0 0 0-4.422c-1.223-1.223-3.23-1.255-4.453-.031"></path></svg></svg>